<svg xmlns="http://www.w3.org/2000/svg" viewBox="0 0 512 512" width="100%" height="100%">
  <defs>
    <linearGradient id="grad" x1="0%" y1="0%" x2="100%" y2="100%">
      <stop offset="0%" style="stop-color:#4f86f7;stop-opacity:1" />
      <stop offset="100%" style="stop-color:#1e5bc8;stop-opacity:1" />
    </linearGradient>
  </defs>
  <rect width="512" height="512" rx="128" fill="url(#grad)" />
  <path d="M150 180h140c11 0 20 9 20 20v112c0 11-9 20-20 20H150c-11 0-20-9-20-20V200c0-11 9-20 20-20zm180 20v112c0 6.6 7.4 10.3 12.5 6.9l48-32c4.7-3.1 7.5-8.4 7.5-14.1v-26.7c0-5.7-2.8-10.9-7.5-14.1l-48-32c-5.1-3.4-12.5.3-12.5 6.9z" fill="#ffffff" />
</svg>
